<svg xmlns="http://www.w3.org/2000/svg" width="48" height="48" xmlns:v="https://vecta.io/nano"><path fill="#7d7c7b" d="M47 24c-6.204-5.62-10.03-4.986-11.048-4.664.576 1.447.9 3.018.916 4.664-.017 1.606-.34 3.217-.916 4.664C36.97 28.986 40.796 29.62 47 24"/><path fill="#ff020b" d="M1 24c6.204-5.62 10.03-4.986 11.048-4.664-.576 1.447-.9 3.018-.916 4.664.017 1.606.34 3.217.916 4.664C11.03 28.986 7.204 29.62 1 24"/><path fill="#171713" d="M34.215 24.035c0 5.622-4.558 10.18-10.18 10.18a10.18 10.18 0 0 1 0-20.36c5.622 0 10.18 4.558 10.18 10.18"/><path d="M24.034 47.034c5.62-6.204 4.986-10.03 4.664-11.048a12.92 12.92 0 0 1-4.664.916 13.11 13.11 0 0 1-4.664-.916c-.322 1.018-.957 4.844 4.664 11.048m.001-46c5.62 6.204 4.986 10.03 4.664 11.048a12.92 12.92 0 0 0-4.664-.916 13.11 13.11 0 0 0-4.664.916c-.322-1.018-.957-4.844 4.664-11.048" fill="#ff9200"/><path fill="#171713" d="M24 34.25c-5.622 0-10.18-4.558-10.18-10.18a10.18 10.18 0 0 1 20.36 0c0 5.622-4.558 10.18-10.18 10.18"/><path fill="#ff7ba5" d="M40.288 40.274c-.413-8.36-3.567-10.618-4.514-11.1-.616 1.43-1.5 2.77-2.65 3.946-1.148 1.124-2.516 2.034-3.946 2.65.492.947 2.748 4.102 11.1 4.514"/><path fill="#00ac4a" d="M7.76 7.747c8.36.413 10.618 3.567 11.1 4.514-1.43.616-2.77 1.5-3.946 2.65-1.124 1.148-2.034 2.516-2.65 3.946-.947-.492-4.102-2.748-4.514-11.1"/><path fill="#171713" d="M31.223 31.257c-3.975 3.975-10.42 3.975-14.397 0a10.18 10.18 0 0 1 14.396-14.396c3.976 3.976 3.976 10.42 0 14.397"/><path fill="#f0f" d="M7.76 40.322c8.36-.413 10.618-3.567 11.1-4.514-1.43-.616-2.77-1.5-3.946-2.65-1.124-1.148-2.034-2.516-2.65-3.946-.947.492-4.102 2.748-4.514 11.1"/><path fill="#0681c4" d="M40.288 7.796c-.413 8.36-3.567 10.618-4.514 11.1-.616-1.43-1.5-2.77-2.65-3.946-1.148-1.124-2.516-2.034-3.946-2.65.492-.947 2.748-4.102 11.1-4.514"/><path fill="#171713" d="M16.777 31.26c-3.975-3.975-3.975-10.42 0-14.397a10.18 10.18 0 0 1 14.396 14.396c-3.976 3.976-10.42 3.976-14.397 0"/></svg>